<svg width="1652" height="181" viewBox="0 0 1652 181" fill="none" xmlns="http://www.w3.org/2000/svg">
<rect y="15" width="150" height="150" rx="20" fill="url(#paint0_linear_1214_16)"/>
<circle cx="34.5" cy="49.5" r="12.5" fill="white"/>
<circle cx="66.5" cy="49.5" r="12.5" fill="white"/>
<circle cx="98.5" cy="49.5" r="12.5" fill="white"/>
<circle cx="66.5" cy="81.5" r="12.5" fill="white"/>
<circle cx="34.5" cy="81.5" r="12.5" fill="white"/>
<circle cx="34.5" cy="113.5" r="12.5" fill="white"/>
<path d="M210.496 144V41.472H239.296V144H210.496ZM233.824 107.568V83.664H284.224V107.568H233.824ZM233.824 65.376V41.472H286.384V65.376H233.824ZM322.277 103.104V83.232H339.701C343.637 83.232 346.613 82.272 348.629 80.352C350.741 78.432 351.797 75.888 351.797 72.72C351.797 69.552 350.741 67.008 348.629 65.088C346.613 63.168 343.637 62.208 339.701 62.208H322.277V41.472H344.309C351.413 41.472 357.653 42.768 363.029 45.36C368.405 47.952 372.629 51.552 375.701 56.16C378.773 60.768 380.309 66.144 380.309 72.288C380.309 78.432 378.725 83.808 375.557 88.416C372.485 93.024 368.165 96.624 362.597 99.216C357.029 101.808 350.453 103.104 342.869 103.104H322.277ZM298.949 144V41.472H327.749V144H298.949ZM354.245 144L326.309 100.224L352.229 94.608L386.933 144H354.245ZM394.152 144V41.472H422.952V144H394.152ZM417.48 144V120.096H472.488V144H417.48ZM417.48 103.392V80.064H467.16V103.392H417.48ZM417.48 65.376V41.472H471.624V65.376H417.48ZM516.71 145.728C507.974 145.728 500.342 144.48 493.814 141.984C487.382 139.392 481.43 135.312 475.958 129.744L493.958 111.744C497.702 115.296 501.638 118.032 505.766 119.952C509.894 121.776 514.31 122.688 519.014 122.688C522.95 122.688 525.926 122.112 527.942 120.96C529.958 119.712 530.966 118.032 530.966 115.92C530.966 113.808 530.102 112.08 528.374 110.736C526.646 109.296 524.342 108.048 521.462 106.992C518.678 105.84 515.558 104.688 512.102 103.536C508.742 102.384 505.382 100.992 502.022 99.36C498.662 97.728 495.542 95.76 492.662 93.456C489.878 91.056 487.622 88.128 485.894 84.672C484.166 81.12 483.302 76.8 483.302 71.712C483.302 65.088 484.886 59.376 488.054 54.576C491.222 49.776 495.686 46.128 501.446 43.632C507.206 41.04 513.974 39.744 521.75 39.744C529.43 39.744 536.534 40.992 543.062 43.488C549.686 45.888 555.158 49.344 559.478 53.856L541.334 71.856C538.166 68.784 534.998 66.528 531.83 65.088C528.662 63.552 525.206 62.784 521.462 62.784C518.486 62.784 516.086 63.264 514.262 64.224C512.534 65.184 511.67 66.624 511.67 68.544C511.67 70.56 512.534 72.24 514.262 73.584C515.99 74.832 518.246 75.984 521.03 77.04C523.91 78.096 527.03 79.2 530.39 80.352C533.846 81.504 537.254 82.896 540.614 84.528C543.974 86.064 547.046 88.08 549.83 90.576C552.71 92.976 555.014 96 556.742 99.648C558.47 103.296 559.334 107.712 559.334 112.896C559.334 123.36 555.59 131.472 548.102 137.232C540.71 142.896 530.246 145.728 516.71 145.728ZM592.585 144V41.472H621.385V144H592.585ZM561.913 65.952V41.472H652.201V65.952H561.913ZM709.637 146.016C701.573 146.016 694.133 144.672 687.317 141.984C680.597 139.296 674.693 135.552 669.605 130.752C664.613 125.952 660.725 120.288 657.941 113.76C655.157 107.232 653.765 100.176 653.765 92.592C653.765 84.912 655.109 77.856 657.797 71.424C660.581 64.992 664.469 59.376 669.461 54.576C674.453 49.776 680.309 46.08 687.029 43.488C693.845 40.8 701.285 39.456 709.349 39.456C717.413 39.456 724.805 40.8 731.525 43.488C738.341 46.08 744.245 49.776 749.237 54.576C754.229 59.376 758.069 65.04 760.757 71.568C763.541 78 764.933 85.056 764.933 92.736C764.933 100.32 763.541 107.376 760.757 113.904C758.069 120.336 754.229 126 749.237 130.896C744.245 135.696 738.389 139.44 731.669 142.128C724.949 144.72 717.605 146.016 709.637 146.016ZM709.349 120.672C714.725 120.672 719.381 119.52 723.317 117.216C727.253 114.912 730.277 111.648 732.389 107.424C734.501 103.2 735.557 98.256 735.557 92.592C735.557 88.368 734.933 84.576 733.685 81.216C732.533 77.76 730.805 74.832 728.501 72.432C726.197 69.936 723.413 68.064 720.149 66.816C716.981 65.472 713.381 64.8 709.349 64.8C703.973 64.8 699.317 65.952 695.381 68.256C691.445 70.464 688.421 73.68 686.309 77.904C684.197 82.032 683.141 86.928 683.141 92.592C683.141 96.912 683.717 100.8 684.869 104.256C686.117 107.712 687.893 110.688 690.197 113.184C692.501 115.584 695.237 117.456 698.405 118.8C701.669 120.048 705.317 120.672 709.349 120.672ZM776.793 144V41.472H796.953L805.593 63.072V144H776.793ZM847.353 144L787.881 69.264L796.953 41.472L856.425 116.208L847.353 144ZM847.353 144L840.153 121.248V41.472H868.953V144H847.353Z" fill="#105492"/>
<path d="M892.456 144L933.928 43.2H945.448L986.632 144H968.776L936.52 62.352H942.568L910.024 144H892.456ZM912.904 124.56V110.16H966.328V124.56H912.904ZM999.928 144V43.2H1011.45L1016.49 62.208V144H999.928ZM1069.77 144L1009.43 65.232L1011.45 43.2L1071.78 121.968L1069.77 144ZM1069.77 144L1064.73 126.288V43.2H1081.29V144H1069.77ZM1095.66 144L1137.13 43.2H1148.65L1189.84 144H1171.98L1139.72 62.352H1145.77L1113.23 144H1095.66ZM1116.11 124.56V110.16H1169.53V124.56H1116.11ZM1203.13 144V43.2H1219.69V144H1203.13ZM1214.51 144V128.88H1267.21V144H1214.51ZM1299.64 103.68L1260.32 43.2H1279.48L1310.15 91.44H1301.22L1331.89 43.2H1350.76L1311.16 103.68H1299.64ZM1297.33 144V93.312H1313.89V144H1297.33ZM1383.87 144V46.08H1400.43V144H1383.87ZM1351.03 58.32V43.2H1433.26V58.32H1351.03ZM1447.68 144V43.2H1464.24V144H1447.68ZM1531.86 145.44C1524.57 145.44 1517.8 144.144 1511.56 141.552C1505.41 138.864 1500.04 135.168 1495.43 130.464C1490.82 125.664 1487.27 120.144 1484.77 113.904C1482.28 107.568 1481.03 100.8 1481.03 93.6C1481.03 86.4 1482.28 79.68 1484.77 73.44C1487.27 67.104 1490.82 61.584 1495.43 56.88C1500.04 52.176 1505.41 48.48 1511.56 45.792C1517.8 43.104 1524.57 41.76 1531.86 41.76C1540.02 41.76 1547.08 43.104 1553.03 45.792C1558.98 48.48 1564.26 52.128 1568.87 56.736L1557.64 67.968C1554.66 64.704 1551.01 62.16 1546.69 60.336C1542.47 58.512 1537.53 57.6 1531.86 57.6C1526.87 57.6 1522.31 58.464 1518.18 60.192C1514.05 61.92 1510.45 64.416 1507.38 67.68C1504.41 70.848 1502.1 74.64 1500.47 79.056C1498.84 83.472 1498.02 88.32 1498.02 93.6C1498.02 98.88 1498.84 103.728 1500.47 108.144C1502.1 112.56 1504.41 116.4 1507.38 119.664C1510.45 122.832 1514.05 125.28 1518.18 127.008C1522.31 128.736 1526.87 129.6 1531.86 129.6C1538.01 129.6 1543.19 128.688 1547.41 126.864C1551.73 124.944 1555.38 122.352 1558.36 119.088L1569.59 130.32C1564.98 135.024 1559.56 138.72 1553.32 141.408C1547.08 144.096 1539.93 145.44 1531.86 145.44ZM1610.76 145.44C1602.79 145.44 1596.02 144 1590.45 141.12C1584.89 138.24 1579.89 134.016 1575.48 128.448L1586.71 117.216C1589.49 121.248 1592.81 124.416 1596.65 126.72C1600.49 128.928 1605.38 130.032 1611.33 130.032C1616.9 130.032 1621.32 128.88 1624.58 126.576C1627.94 124.272 1629.62 121.104 1629.62 117.072C1629.62 113.712 1628.76 110.976 1627.03 108.864C1625.3 106.752 1623 105.024 1620.12 103.68C1617.33 102.24 1614.21 100.992 1610.76 99.936C1607.4 98.784 1603.99 97.536 1600.53 96.192C1597.17 94.752 1594.05 92.976 1591.17 90.864C1588.39 88.752 1586.13 86.016 1584.41 82.656C1582.68 79.296 1581.81 75.024 1581.81 69.84C1581.81 63.888 1583.25 58.848 1586.13 54.72C1589.11 50.496 1593.09 47.28 1598.09 45.072C1603.08 42.864 1608.65 41.76 1614.79 41.76C1621.41 41.76 1627.32 43.056 1632.5 45.648C1637.78 48.24 1642.05 51.552 1645.32 55.584L1634.09 66.816C1631.21 63.552 1628.18 61.152 1625.01 59.616C1621.94 57.984 1618.39 57.168 1614.36 57.168C1609.37 57.168 1605.43 58.176 1602.55 60.192C1599.77 62.208 1598.37 65.04 1598.37 68.688C1598.37 71.76 1599.24 74.256 1600.97 76.176C1602.69 78 1604.95 79.584 1607.73 80.928C1610.61 82.176 1613.73 83.376 1617.09 84.528C1620.55 85.68 1623.96 86.976 1627.32 88.416C1630.77 89.856 1633.89 91.728 1636.68 94.032C1639.56 96.24 1641.86 99.12 1643.59 102.672C1645.32 106.224 1646.18 110.688 1646.18 116.064C1646.18 125.088 1642.97 132.24 1636.53 137.52C1630.2 142.8 1621.61 145.44 1610.76 145.44Z" fill="#953993"/>
<defs>
<linearGradient id="paint0_linear_1214_16" x1="5.35714" y1="23.0357" x2="145.179" y2="161.786" gradientUnits="userSpaceOnUse">
<stop stop-color="#EC4F8D"/>
<stop offset="0.46875" stop-color="#D04374"/>
<stop offset="0.541667" stop-color="#C74070"/>
<stop offset="1" stop-color="#A5335B"/>
</linearGradient>
</defs>
</svg>
