<?xml version="1.0" encoding="utf-8"?>
<!-- Generator: Adobe Illustrator 18.0.0, SVG Export Plug-In . SVG Version: 6.00 Build 0)  -->
<!DOCTYPE svg PUBLIC "-//W3C//DTD SVG 1.1//EN" "http://www.w3.org/Graphics/SVG/1.1/DTD/svg11.dtd">
<svg version="1.1" id="Layer_1" xmlns="http://www.w3.org/2000/svg" xmlns:xlink="http://www.w3.org/1999/xlink" x="0px" y="0px"
	 viewBox="0 0 450 450" enable-background="new 0 0 450 450" xml:space="preserve">
<g>
	<defs>
		<rect id="SVGID_1_" x="4.5" y="33.5" width="440.9" height="381.9"/>
	</defs>
	<clipPath id="SVGID_2_">
		<use xlink:href="#SVGID_1_"  overflow="visible"/>
	</clipPath>
	<g clip-path="url(#SVGID_2_)">
		<defs>
			<rect id="SVGID_3_" x="4.5" y="33.5" width="440.9" height="381.9"/>
		</defs>
		<clipPath id="SVGID_4_">
			<use xlink:href="#SVGID_3_"  overflow="visible"/>
		</clipPath>
		<path clip-path="url(#SVGID_4_)" fill="#4350A2" d="M276.1,395.4H133.9c-12.4,0-22.4-10-22.4-22.4V56.4c0-12.4,10-22.4,22.4-22.4
			h142.2c12.4,0,22.4,10,22.4,22.4v316.6C298.5,385.3,288.5,395.4,276.1,395.4"/>
		<path clip-path="url(#SVGID_4_)" fill="#FFFFFF" d="M275.4,390.2H134.6c-10.9,0-19.7-8.8-19.7-19.7V56.7
			c0-10.9,8.8-19.7,19.7-19.7h140.8c10.9,0,19.7,8.8,19.7,19.7v313.8C295,381.4,286.2,390.2,275.4,390.2"/>
		<path clip-path="url(#SVGID_4_)" fill="#DFE2F2" d="M287.2,56.1v313.5c0,7.4-6,13.3-13.3,13.3H136.1c-7.4,0-13.3-6-13.3-13.3V56.1
			c0-7.4,6-13.3,13.3-13.3h23c1.3,0,2.4,0.7,3,1.9l2.4,4.9c1.1,2.2,3.4,3.7,5.9,3.7h69.1c2.5,0,4.8-1.4,5.9-3.7l2.4-4.9
			c0.6-1.1,1.7-1.9,3-1.9h23C281.2,42.8,287.2,48.8,287.2,56.1"/>
		<path clip-path="url(#SVGID_4_)" fill="#DFE2F2" d="M234,47.5h-55.6c-1.3,0-2.3-1-2.3-2.3c0-1.3,1-2.3,2.3-2.3H234
			c1.3,0,2.3,1,2.3,2.3C236.3,46.5,235.3,47.5,234,47.5"/>
		
			<path clip-path="url(#SVGID_4_)" fill="none" stroke="#6C8BC6" stroke-linecap="round" stroke-linejoin="round" stroke-miterlimit="10" stroke-dasharray="2.837,2.837" d="
			M265.3,372H141.5c-4.9,0-8.8-3.9-8.8-8.8v-43.7c0-4.9,3.9-8.8,8.8-8.8h123.8c4.9,0,8.8,3.9,8.8,8.8v43.7
			C274.1,368.1,270.2,372,265.3,372z"/>
		
			<path clip-path="url(#SVGID_4_)" fill="none" stroke="#6C8BC6" stroke-linecap="round" stroke-linejoin="round" stroke-miterlimit="10" stroke-dasharray="2.837,2.837" d="
			M259,221.5h-61.4c-3.5,0-6.4-2.8-6.4-6.4v-30.4c0-3.5,2.8-6.4,6.4-6.4H259c3.5,0,6.4,2.8,6.4,6.4v30.4
			C265.4,218.7,262.5,221.5,259,221.5z"/>
		<path clip-path="url(#SVGID_4_)" fill="#4C5B9C" d="M272.2,300.5H145.4c-4.2,0-7.6-3.4-7.6-7.6v-53.5c0-4.2,3.4-7.6,7.6-7.6h126.9
			c4.2,0,7.6,3.4,7.6,7.6v53.5C279.8,297.1,276.4,300.5,272.2,300.5"/>
		<path clip-path="url(#SVGID_4_)" fill="#8391C9" d="M274.1,233.8v53.5c0,4.2-3.4,7.5-7.6,7.5H140.2c-4.2,0-7.6-3.4-7.6-7.5v-53.5
			c0-4.2,3.4-7.6,7.6-7.6h126.3C270.7,226.3,274.1,229.7,274.1,233.8"/>
		<path clip-path="url(#SVGID_4_)" fill="#FFFFFF" d="M181.5,289.3h-37.2c-2.8,0-5.1-2.3-5.1-5.1V247c0-2.8,2.3-5.1,5.1-5.1h37.2
			c2.8,0,5.1,2.3,5.1,5.1v37.2C186.6,287.1,184.4,289.3,181.5,289.3"/>
		<path clip-path="url(#SVGID_4_)" fill="#B5BFE2" d="M225.6,247.9h-32.8c-0.9,0-1.6-0.7-1.6-1.6c0-0.9,0.7-1.6,1.6-1.6h32.8
			c0.9,0,1.6,0.7,1.6,1.6C227.3,247.2,226.5,247.9,225.6,247.9"/>
		<path clip-path="url(#SVGID_4_)" fill="#B5BFE2" d="M210.7,254.4h-17.8c-0.9,0-1.6-0.7-1.6-1.6c0-0.9,0.7-1.6,1.6-1.6h17.8
			c0.9,0,1.6,0.7,1.6,1.6C212.3,253.6,211.6,254.4,210.7,254.4"/>
		<path clip-path="url(#SVGID_4_)" fill="#B5BFE2" d="M265.5,254.4h-48.3c-0.9,0-1.6-0.7-1.6-1.6c0-0.9,0.7-1.6,1.6-1.6h48.3
			c0.9,0,1.6,0.7,1.6,1.6C267.2,253.6,266.4,254.4,265.5,254.4"/>
		<path clip-path="url(#SVGID_4_)" fill="#B5BFE2" d="M220.5,260.8h-27.6c-0.9,0-1.6-0.7-1.6-1.6s0.7-1.6,1.6-1.6h27.6
			c0.9,0,1.6,0.7,1.6,1.6S221.4,260.8,220.5,260.8"/>
		<path clip-path="url(#SVGID_4_)" fill="#B5BFE2" d="M243.9,260.8h-17.4c-0.9,0-1.6-0.7-1.6-1.6s0.7-1.6,1.6-1.6h17.4
			c0.9,0,1.6,0.7,1.6,1.6S244.8,260.8,243.9,260.8"/>
		<path clip-path="url(#SVGID_4_)" fill="#B5BFE2" d="M265.5,260.8h-16c-0.9,0-1.6-0.7-1.6-1.6s0.7-1.6,1.6-1.6h16
			c0.9,0,1.6,0.7,1.6,1.6S266.4,260.8,265.5,260.8"/>
		<path clip-path="url(#SVGID_4_)" fill="#B5BFE2" d="M265.5,267.2h-72.7c-0.9,0-1.6-0.7-1.6-1.6c0-0.9,0.7-1.6,1.6-1.6h72.7
			c0.9,0,1.6,0.7,1.6,1.6C267.2,266.5,266.4,267.2,265.5,267.2"/>
		<path clip-path="url(#SVGID_4_)" fill="#B5BFE2" d="M232.9,273.7h-40c-0.9,0-1.6-0.7-1.6-1.6c0-0.9,0.7-1.6,1.6-1.6h40
			c0.9,0,1.6,0.7,1.6,1.6C234.5,273,233.8,273.7,232.9,273.7"/>
		<path clip-path="url(#SVGID_4_)" fill="#B5BFE2" d="M265.5,273.7h-26.2c-0.9,0-1.6-0.7-1.6-1.6c0-0.9,0.7-1.6,1.6-1.6h26.2
			c0.9,0,1.6,0.7,1.6,1.6C267.2,273,266.4,273.7,265.5,273.7"/>
		<path clip-path="url(#SVGID_4_)" fill="#B5BFE2" d="M216.4,280.1h-23.5c-0.9,0-1.6-0.7-1.6-1.6c0-0.9,0.7-1.6,1.6-1.6h23.5
			c0.9,0,1.6,0.7,1.6,1.6C218,279.4,217.3,280.1,216.4,280.1"/>
		<path clip-path="url(#SVGID_4_)" fill="#B5BFE2" d="M246.2,280.1h-23.5c-0.9,0-1.6-0.7-1.6-1.6c0-0.9,0.7-1.6,1.6-1.6h23.5
			c0.9,0,1.6,0.7,1.6,1.6C247.8,279.4,247.1,280.1,246.2,280.1"/>
		<path clip-path="url(#SVGID_4_)" fill="#B5BFE2" d="M265.5,280.1h-13.6c-0.9,0-1.6-0.7-1.6-1.6c0-0.9,0.7-1.6,1.6-1.6h13.6
			c0.9,0,1.6,0.7,1.6,1.6C267.2,279.4,266.4,280.1,265.5,280.1"/>
		<path clip-path="url(#SVGID_4_)" fill="#B5BFE2" d="M225.6,286.6h-32.8c-0.9,0-1.6-0.7-1.6-1.6c0-0.9,0.7-1.6,1.6-1.6h32.8
			c0.9,0,1.6,0.7,1.6,1.6C227.3,285.8,226.5,286.6,225.6,286.6"/>
		<path clip-path="url(#SVGID_4_)" fill="#B5BFE2" d="M265.5,247.9h-32.8c-0.9,0-1.6-0.7-1.6-1.6c0-0.9,0.7-1.6,1.6-1.6h32.8
			c0.9,0,1.6,0.7,1.6,1.6C267.2,247.2,266.4,247.9,265.5,247.9"/>
		<path clip-path="url(#SVGID_4_)" fill="#435BA9" d="M274.1,233.8v2.2H132.7v-2.2c0-4.2,3.4-7.6,7.6-7.6h126.3
			C270.7,226.3,274.1,229.7,274.1,233.8"/>
		<path clip-path="url(#SVGID_4_)" fill="#DFE2F2" d="M247.5,231.4c0,1-0.8,1.8-1.8,1.8c-1,0-1.8-0.8-1.8-1.8c0-1,0.8-1.8,1.8-1.8
			C246.7,229.6,247.5,230.4,247.5,231.4"/>
		<path clip-path="url(#SVGID_4_)" fill="#DFE2F2" d="M256.4,231.4c0,1-0.8,1.8-1.8,1.8c-1,0-1.8-0.8-1.8-1.8c0-1,0.8-1.8,1.8-1.8
			C255.6,229.6,256.4,230.4,256.4,231.4"/>
		<path clip-path="url(#SVGID_4_)" fill="#DFE2F2" d="M265.4,231.4c0,1-0.8,1.8-1.8,1.8c-1,0-1.8-0.8-1.8-1.8c0-1,0.8-1.8,1.8-1.8
			C264.6,229.6,265.4,230.4,265.4,231.4"/>
		<path clip-path="url(#SVGID_4_)" fill="none" stroke="#5160AB" stroke-width="0.896" stroke-miterlimit="10" d="M176.5,221.5h-28
			c-4.2,0-7.5-3.4-7.5-7.5v-28c0-4.2,3.4-7.5,7.5-7.5h28c4.2,0,7.5,3.4,7.5,7.5v28C184,218.1,180.6,221.5,176.5,221.5z"/>
		
			<polyline clip-path="url(#SVGID_4_)" fill="none" stroke="#5160AB" stroke-width="1.672" stroke-linecap="round" stroke-linejoin="round" stroke-miterlimit="10" points="
			155.8,193.8 149.6,200 155.8,206.2 		"/>
		
			<polyline clip-path="url(#SVGID_4_)" fill="none" stroke="#5160AB" stroke-width="1.672" stroke-linecap="round" stroke-linejoin="round" stroke-miterlimit="10" points="
			169.2,193.8 175.4,200 169.1,206.2 		"/>
		
			<line clip-path="url(#SVGID_4_)" fill="none" stroke="#5160AB" stroke-width="1.672" stroke-linecap="round" stroke-linejoin="round" stroke-miterlimit="10" x1="165.4" y1="193.8" x2="159.6" y2="206.2"/>
		<path clip-path="url(#SVGID_4_)" fill="#B5BFE2" d="M274.1,73.5V161c0,4.8-3.8,8.6-8.6,8.6H141.3c-4.7,0-8.6-3.8-8.6-8.6V73.5
			c0-4.8,3.9-8.6,8.6-8.6h124.2C270.3,64.9,274.1,68.7,274.1,73.5"/>
		<path clip-path="url(#SVGID_4_)" fill="#F1F4FA" d="M266,92.5c0,11.3-9.2,20.5-20.5,20.5c-11.3,0-20.5-9.2-20.5-20.5
			c0-11.3,9.2-20.5,20.5-20.5C256.8,72,266,81.2,266,92.5"/>
		<path clip-path="url(#SVGID_4_)" fill="#FFFFFF" d="M215.8,169.6h-74.5c-4.7,0-8.6-3.8-8.6-8.6v-13.8l32.6-56.5c1.7-3,6-3,7.7,0
			l24.6,42.7l18.3,31.7C216.8,166.6,216.6,168.3,215.8,169.6"/>
		<path clip-path="url(#SVGID_4_)" fill="#F1F4FA" d="M248,169.6h-71.3l20.9-36.2l11.3-19.5c1.5-2.7,5.4-2.7,6.9,0L248,169.6z"/>
		<rect x="334.4" y="332.2" clip-path="url(#SVGID_4_)" fill="#4552A3" width="54.9" height="82.6"/>
		<rect x="389.3" y="332.2" clip-path="url(#SVGID_4_)" fill="#5160AB" width="21" height="82.6"/>
		<rect x="392.3" y="335.4" clip-path="url(#SVGID_4_)" fill="#B5BFE2" width="15.4" height="2.6"/>
		<rect x="392.3" y="341.1" clip-path="url(#SVGID_4_)" fill="#B5BFE2" width="15.4" height="2.6"/>
		<rect x="392.3" y="346.7" clip-path="url(#SVGID_4_)" fill="#B5BFE2" width="15.4" height="2.6"/>
		<rect x="392.3" y="352.4" clip-path="url(#SVGID_4_)" fill="#B5BFE2" width="15.4" height="2.6"/>
		<rect x="392.3" y="358.1" clip-path="url(#SVGID_4_)" fill="#B5BFE2" width="15.4" height="2.6"/>
		<rect x="392.3" y="363.7" clip-path="url(#SVGID_4_)" fill="#B5BFE2" width="15.4" height="2.6"/>
		<rect x="392.3" y="369.4" clip-path="url(#SVGID_4_)" fill="#B5BFE2" width="15.4" height="2.6"/>
		<rect x="392.3" y="375" clip-path="url(#SVGID_4_)" fill="#B5BFE2" width="15.4" height="2.6"/>
		<rect x="392.3" y="380.7" clip-path="url(#SVGID_4_)" fill="#B5BFE2" width="15.4" height="2.6"/>
		<rect x="392.3" y="386.4" clip-path="url(#SVGID_4_)" fill="#B5BFE2" width="15.4" height="2.6"/>
		<rect x="392.3" y="392" clip-path="url(#SVGID_4_)" fill="#B5BFE2" width="15.4" height="2.6"/>
		<rect x="392.3" y="397.7" clip-path="url(#SVGID_4_)" fill="#B5BFE2" width="15.4" height="2.6"/>
		<rect x="392.3" y="403.3" clip-path="url(#SVGID_4_)" fill="#B5BFE2" width="15.4" height="2.6"/>
		<rect x="392.3" y="409" clip-path="url(#SVGID_4_)" fill="#B5BFE2" width="15.4" height="2.6"/>
		<path clip-path="url(#SVGID_4_)" fill="#281616" d="M325.5,414.8h27.9c0,0,1.6-5-1.8-11.1c0,0-2.2,1.8-9,0.6c0,0-2.8,2.4-4.8,3.3
			C335.9,408.5,324.7,410.7,325.5,414.8"/>
		<path clip-path="url(#SVGID_4_)" fill="#142E53" d="M327.4,336.1c1.8,10.8,10.1,47.2,13.7,68.7c6.5,0.6,9.7-0.2,11.3-0.6
			c-0.3-7.5-1-25.4-0.9-33.3c0.1-13.3,0.7-30.8-5.1-40.5l-19.7,1.6c0.1,1,0.2,1.9,0.3,2.5C327.2,335,327.3,335.6,327.4,336.1"/>
		<path clip-path="url(#SVGID_4_)" fill="#281616" d="M274.9,414.8h27.9c0,0,1.6-5-1.8-11.1c0,0-2.2,1.8-9,0.6c0,0-2.8,2.4-4.8,3.3
			C285.4,408.5,274.2,410.7,274.9,414.8"/>
		<path clip-path="url(#SVGID_4_)" fill="#072635" d="M291.3,404.1c5.3,1.3,9.2,1.2,11,1c1.5-8.6,3.8-27.7,5.9-36.6
			c3.3-13.9,6.5-32.9,4.3-39.7l-19.4-4.9C293.1,324.6,291.5,382.9,291.3,404.1"/>
		<path clip-path="url(#SVGID_4_)" fill="#072635" d="M368.3,304.1L368.3,304.1c-0.4-3.8-0.8-6.6-0.8-6.6l-21.6,5.3l-18.4,4.2
			c-6.8,1.5-15,3.3-22.3,5c-8.1,1.8-13.5,8-11.8,16.2l2,9.9c11.4-0.2,64.9-5.3,69.5-7.6C370.1,327.8,371.7,318.6,368.3,304.1"/>
		<path clip-path="url(#SVGID_4_)" fill="#142E53" d="M400.6,304.1L400.6,304.1c-0.4-3.8-2.3-7.9-2.3-7.9l-20.2,6.6l-18.4,4.2
			c-6.8,1.5-15,3.3-22.3,5c-8.1,1.8-13.5,8-11.8,16.2l2,9.9c11.4-0.2,59-1.8,69.5-7.6C402.3,327.6,404,318.6,400.6,304.1"/>
		<path clip-path="url(#SVGID_4_)" fill="#E69290" d="M340.1,273.1c0,0,9.6-4.3,12.3,0c1.4,2.4,0.4,6.8-2.8,8.7
			c-3.3,1.9-21.8,9.7-39.3,14.1c0,0-0.7-2.4-2-5c0,0,7.8-3.3,15.6-8.7C331.7,276.6,340.1,273.1,340.1,273.1"/>
		<path clip-path="url(#SVGID_4_)" fill="#E69290" d="M342.5,243.1l-8.2,32.9c0,0,0.9,8.3,9.2,4.2c8.4-4.1,14-30.3,14-30.3
			L342.5,243.1z"/>
		<path clip-path="url(#SVGID_4_)" fill="#FFFFFF" d="M356.4,261.5c-1-0.2-2-0.5-2.9-0.8c-1-0.3-1.9-0.6-2.7-0.9
			c-7.8-2.7-12.1-5.9-12.1-5.9c2.5-10.7,5.4-17.9,8.1-22.6c0.1-0.1,0.1-0.2,0.2-0.4c0.1-0.1,0.1-0.2,0.2-0.4c1.4-2.4,3.5-4.3,5.7-6
			c0.2-0.2,0.5-0.3,0.7-0.5l1,17.2l0.2,1.8L356.4,261.5z"/>
		<path clip-path="url(#SVGID_4_)" fill="#C7E5F1" d="M356.4,261.5c-1-0.2-2-0.5-2.9-0.8c-1-0.3-1.9-0.6-2.7-0.9
			c1.6-11.6,3.1-18.8,3.1-18.8l0.8,2.1L356.4,261.5z"/>
		<path clip-path="url(#SVGID_4_)" fill="#FFFFFF" d="M405,231.8c-0.2,5.1-1.1,13.2-1.9,21.4c-0.2,2.6-0.5,5.2-0.7,7.7
			c-0.1,1.6-2.5,9.9-2.6,11.4c-0.4,7.2-3.9,12.5-0.6,23.5c0.8,2.6,1,4,1,5c0,0.7-1,1.5-1.4,1.7c-1.4,0.8-4.1,1.4-7.5,1.8h0
			c-6.5,0.8-15.4,0.9-20.7,0.9c-7.2,0-17.9-1.1-19.3-2.9c-1.2-1.7-0.1-4.1,0.5-7.4c2.6-15,1.7-22.8,1.5-33.6c0-0.3,0-0.5,0-0.8
			c-0.3-16.7-1.4-30.9-0.6-36.1c0.2-0.2,0.5-0.3,0.7-0.5c1.1-0.8,2.2-1.5,3.3-2.1c0.1,0,0.2-0.1,0.3-0.2c0.3-0.2,0.7-0.4,1-0.5
			c0.1-0.1,0.2-0.1,0.4-0.2c2.4-1.2,6-2.4,8-3.2c0.3-0.1,0.5-0.2,0.7-0.2c1.9-0.1,4-0.1,6.2-0.1c1.9,0.1,4.9,0.3,8.2,0.7h0
			c3.7,0.5,7.6,1.2,10.8,2c0,0,0,0,0.1,0c0.6,0.2,4.5,1.6,8.5,6C402.4,227.9,403.8,229.6,405,231.8"/>
		<path clip-path="url(#SVGID_4_)" fill="#C7E5F1" d="M399.3,295.9c0.8,2.6,1,4,1,5c0,0.7-1,1.5-1.4,1.7c-1.4,0.8-4.1,1.4-7.5,1.8
			c1.4-0.2,3.7-2.3,3.7-4.3c0-1.4-1.8-10.6-1.3-16.6c0.5-6,1.5-15.5-0.4-23.1c-1.9-7.6-3.6-17.6-3.6-17.6l10.4,6.3
			c0,0,1.3,1.9,2.8,4.2c-0.2,2.6-0.5,5.2-0.7,7.7C402.3,262.5,395.9,284.9,399.3,295.9"/>
		<path clip-path="url(#SVGID_4_)" fill="#142E53" d="M353.3,187.8c0,0,0.9,10.9,4.5,11.6c3.6,0.7,2.7-3.9,2.7-3.9l-0.5-5.2
			L353.3,187.8z"/>
		<path clip-path="url(#SVGID_4_)" fill="#E69290" d="M370,227.3c-7.1-0.8-4.4-7.7-3.5-9.3c0.3-0.1,1.5-0.5,1.6-0.5c0,0,0,0,0,0
			c0.2-0.2,0.4-0.5,0.6-0.8c0.7-1.8,0.4-5.4,0.4-5.7v0v-0.7c0.1-0.4,0.2-0.8,0.3-1.2l3.7-2.9l7.9-6.2c0,0-2.1,10.4-0.4,16.9
			c0.1,0.5,0.4,1.2,1,1.6c0,0,0,0,0,0c0.2,0.1,0.5,0.2,0.8,0.3C384.4,219.6,381.7,228.7,370,227.3"/>
		<path clip-path="url(#SVGID_4_)" fill="#CC6463" d="M376.3,206.6c0,0-0.1,6.9-7.6,10.1c0.7-1.8,0.4-5.4,0.4-5.7l3.1-2.5
			L376.3,206.6z"/>
		<path clip-path="url(#SVGID_4_)" fill="#E69290" d="M355.1,189.3c0,0,1.6,22.6,7.8,24.6c0,0,7.8,0.7,13.4-6.8
			c1.6-2.2,3.6-2.7,4.3-5.3c1.1-4.3,2.6-12.1,0.7-16.8C378.4,178.3,355.3,172.9,355.1,189.3"/>
		<path clip-path="url(#SVGID_4_)" fill="#142E53" d="M381.3,181.3c-0.1-4.1-4.3-5.7-4.3-5.7c-4.1-1.9-12.8-1.1-21.6,0.9
			c-2.1,0.5-4.7-0.8-6.1,0.2c-1.8,1.2,0,6.8,0,6.8c3.4,10.4,16,7,19.8,5.7c0.9,2.7,0.8,6.4,3,8.3c1.3,1.1,3.5,1.1,5.8,0.7
			c0.3,0.5,1.3,1,1.5,1.7c0.7,2.4,0.6,6.2,0.6,9.1l1.1-0.5C381.2,207.8,392.2,181.6,381.3,181.3"/>
		
			<ellipse transform="matrix(0.9859 -0.1675 0.1675 0.9859 -27.9976 62.8723)" clip-path="url(#SVGID_4_)" fill="none" stroke="#FFFFFF" stroke-width="0.501" stroke-miterlimit="10" cx="358.7" cy="197.4" rx="2.7" ry="3.5"/>
		
			<ellipse transform="matrix(0.9858 -0.1677 0.1677 0.9858 -27.6873 64.1658)" clip-path="url(#SVGID_4_)" fill="none" stroke="#FFFFFF" stroke-width="0.501" stroke-miterlimit="10" cx="366.1" cy="196" rx="2.7" ry="3.5"/>
		<path clip-path="url(#SVGID_4_)" fill="none" stroke="#FFFFFF" stroke-width="0.501" stroke-miterlimit="10" d="M361.3,196.9
			c0,0,0.3-0.5,2-0.4"/>
		
			<line clip-path="url(#SVGID_4_)" fill="none" stroke="#FFFFFF" stroke-width="0.501" stroke-miterlimit="10" x1="368.8" y1="196" x2="375.1" y2="195"/>
		<path clip-path="url(#SVGID_4_)" fill="#E69290" d="M375.6,203c4.4,1.7,5.7-9,1.6-9.5c-3.1-0.4-3.3,4-3.3,4S373.1,202.1,375.6,203
			"/>
		<g opacity="0.5" clip-path="url(#SVGID_4_)">
			<g>
				<defs>
					<rect id="SVGID_5_" x="375.2" y="195.1" width="2.5" height="5.5"/>
				</defs>
				<clipPath id="SVGID_6_">
					<use xlink:href="#SVGID_5_"  overflow="visible"/>
				</clipPath>
				<path clip-path="url(#SVGID_6_)" fill="#CC6463" d="M377,195.1c0,0-0.3,0.3-0.5,0.8c-0.3,0.5-0.5,1.1-0.5,1.8c0,0.3,0,0.7,0,1
					c0,0.3,0.1,0.7,0.1,0.9c0,0.3,0.1,0.5,0.1,0.7c0,0.2,0,0.3,0,0.3s-0.1-0.1-0.2-0.2c-0.1-0.2-0.2-0.3-0.4-0.6
					c-0.1-0.3-0.3-0.6-0.3-1c-0.1-0.4-0.1-0.8-0.1-1.2c0-0.4,0.1-0.8,0.3-1.2c0.2-0.4,0.4-0.6,0.6-0.9
					C376.6,195.2,377,195.1,377,195.1"/>
				<path clip-path="url(#SVGID_6_)" fill="#CC6463" d="M377.7,197.2c0,0-0.2,0-0.4,0.1c-0.2,0.1-0.5,0.3-0.8,0.5
					c-0.2,0.2-0.4,0.5-0.5,0.7c-0.1,0.2-0.1,0.4-0.1,0.4l-0.7-0.3c0,0,0.1-0.2,0.3-0.4c0.2-0.2,0.5-0.5,0.8-0.7
					c0.3-0.2,0.7-0.3,1-0.3C377.5,197.1,377.7,197.2,377.7,197.2"/>
			</g>
		</g>
		<path clip-path="url(#SVGID_4_)" fill="#E69290" d="M417.4,277.4L417.4,277.4c-1.9,2.2-9.2,3.8-12.7,0.8c-1.1-1-2.3-3.6-3.6-6.7
			c-3.1-8.2-6-20.4-6-20.4l16.2-8.3c0,0,2.1,9.4,3.9,18.3c0,0,0,0.1,0,0.2c0.6,2.9,1.1,5.7,1.6,8.1c0,0.1,0,0.1,0,0.2
			C417.4,272.4,417.6,275.4,417.4,277.4"/>
		<path clip-path="url(#SVGID_4_)" fill="#FFFFFF" d="M389,239.7c1.6,6.5,6.5,18.9,6.5,18.9c3.5,0.6,8.1-0.1,11.9-1.4
			c4.4-1.6,7.6-4.9,7.6-4.9s-3.3-9.2-6.2-15.8c-2.6-5.9-4.2-8.1-5.4-9.3c-1.7-1.8-4.5-3.9-6.4-4.8L389,239.7z"/>
		<path clip-path="url(#SVGID_4_)" fill="#FFFFFF" d="M409.6,243.9l-9.5-4.1l-7.5-19.3c0,0,1.4,0.4,3.2,1.1h0c0,0,0.1,0,0.2,0.1
			c0,0,0.1,0,0.1,0.1c1.6,0.8,7.9,4.5,12.2,17.9c0,0.1,0.1,0.2,0.1,0.3c0.5,1.6,0.8,2.8,1,3.4c0,0.1,0,0.1,0.1,0.2
			C409.5,243.8,409.5,243.9,409.6,243.9"/>
		<path clip-path="url(#SVGID_4_)" fill="#E69290" d="M417.4,277.4L417.4,277.4c-0.1,1.2-0.5,2.1-1.1,2.4c-0.1,0.1-1.4,0.9-1.5,0.9
			c-2,1.2-5.6,3.3-10.1,5.2c-10.9,4.7-26.6,10.1-35.1,12.6c0,0-0.8-2.4-2.1-4.9c0,0,7.7-3.6,15.3-9.4c7.6-5.8,18.5-12.8,18.5-12.8
			l2.7-3.2c0,0,9.8-9,11.3-7.2c0,0,0,0.1,0,0.2c0.2,0.9,1,4.4,1.6,8.1c0,0.1,0,0.1,0,0.2C417.4,272.4,417.6,275.4,417.4,277.4"/>
		<path clip-path="url(#SVGID_4_)" fill="#E69290" d="M368.6,293.1c0,0-1.9,1.2-3.9,0.7c-1.1-0.2-1.5-0.7-2.3-0.8
			c-0.8-0.1-2.9-0.4-4-0.9c-1.1-0.5-1.5-0.6-1.4,0.5c0,1.1,2.1,2,2.7,2.3c0.6,0.3,1.3,1.2,1.3,1.3c0.1,0.1-3.5,2-4.4,1.6
			c0,0-0.3,0.8-0.1,1.3c0.2,0.5,0.9,0.6,0.9,0.9c0.1,0.2-0.2,0.7,0,1.1c0.2,0.4,0.8,0.4,1.1,1c0.3,0.6,0,0.6,0.2,1.3
			c0.2,0.6,1,0.8,1.2,1.1c0.2,0.3,0.1,0.7,0.4,0.9c0.3,0.2,3.5-0.8,4.7-1.3c1.2-0.5,4.3-5,7.7-6.5L368.6,293.1z"/>
		<path clip-path="url(#SVGID_4_)" fill="#396085" d="M384.8,313h-24.7v-2.4h24.7c0.7,0,1.2,0.5,1.2,1.2
			C386,312.4,385.5,313,384.8,313"/>
		<path clip-path="url(#SVGID_4_)" fill="#396085" d="M371.5,313h-61.8c-0.7,0-1.4-0.5-1.6-1.2l-12.7-45.6c-0.3-1,0.5-2,1.5-2h59.8
			c1.4,0,2.6,0.9,3,2.3l12.6,45.4C372.5,312.4,372,313,371.5,313"/>
		<path clip-path="url(#SVGID_4_)" fill="#5279BC" d="M369.2,313h-61.8c-0.7,0-1.4-0.5-1.6-1.2l-12.7-45.6c-0.3-1,0.5-2,1.5-2h59.8
			c1.4,0,2.6,0.9,3,2.3l12.6,45.4C370.2,312.4,369.8,313,369.2,313"/>
		<path clip-path="url(#SVGID_4_)" fill="#E59292" d="M124.1,283.5l7.2-7.3c0,0,0.2-3.3,0.6-4c0.4-0.7,1.4-3.2,1.9-3.5
			c0.5-0.3,1.5,0,1.5,0s1-0.3,1.4-0.3c0.4,0,1.3,0.4,1.3,0.4s1.1-0.1,1.5-0.1c0.4,0,0.6,0.1,0.6,0.1s1.7-2,2.6-2.7
			c0.8-0.7,2.1-1.9,2.5-1.9c0.4,0,0.5,0.6,0.3,1.3c-0.3,0.7-1.4,1.7-1.4,1.7l-3.3,4.9c0,0,0.6-0.2,0.9-0.4c0.3-0.2,2.3-2,2.4-2.1
			c0.1-0.1,1-0.7,1.5-0.1c0.5,0.6-3.4,5.3-4,5.9c-0.6,0.6-4.3,2.5-4.3,2.5s-3.8,6.9-4.2,7.3C132.8,285.8,124.1,283.5,124.1,283.5"/>
		<path clip-path="url(#SVGID_4_)" fill="#E59292" d="M130.9,249.6c0,0-4,23.2-7.8,23.7c0,0-15,0.6-18.4-17.6
			c-2.9-15.8,8.7-19.2,14.2-18C124.4,239,132,239.7,130.9,249.6"/>
		<path clip-path="url(#SVGID_4_)" fill="#E59292" d="M117.6,269.6c0,0-2.1,2.8-2.8,9.7c0,0-6.3,0.9-12-2.1c0,0,3.1-9.7,3.5-20.2"/>
		<path clip-path="url(#SVGID_4_)" fill="#142E53" d="M113.3,233.9c-8.2,1.8-7.6,6.9-7.6,6.9c-3.8,1-4.7,2.5-4.6,9.6
			c0,7.1,2.6,15.6,4,16.3c1.4,0.7,9.5,0.7,10.1,0.5c0.7-0.2,3.5-6.8,2.8-7.9c-0.7-1.1,0-5.7,1.9-5.8c1.9-0.2,1.5,2.7,1.5,2.7
			l1.5-0.3l1.2-2.9c10.9,0.6,13.7-11.7,13.7-11.7C135.3,239.6,121.6,232,113.3,233.9"/>
		<path clip-path="url(#SVGID_4_)" fill="#E69290" d="M22.1,390.8l8.3,1.2l-2.8,9.7l-9-2.3c0,0-3.7-5,1.9-8.6
			C20.8,390.6,21.7,390.7,22.1,390.8"/>
		<path clip-path="url(#SVGID_4_)" fill="#010101" d="M84.1,365.9l-12.2-37.1c0,0-3.7-1.3-5.6,0c0,0-12.8,6.9-11.4,26.4
			c1,14.7,4.1,30.7,5.4,37.2l-32.7-1.2c0,0-4,4.8-1.4,11c0,0,41.1,11,46.8,12.1c4.7,0.8,9.8,1.5,12.3-0.7
			C89.7,409.8,84.1,365.9,84.1,365.9"/>
		<path clip-path="url(#SVGID_4_)" fill="#E69290" d="M60.8,390.8l8.3,1.2l-2.8,9.7l-9-2.3c0,0-3.7-5,1.9-8.6
			C59.5,390.6,60.4,390.7,60.8,390.8"/>
		<path clip-path="url(#SVGID_4_)" fill="#5279BC" d="M57.8,395.9c-0.2,1.9,1.5,3.6,1.2,4.1c-0.3,0.5-5.9,9.8-5.9,9.8
			s4.2,1.8,3.5,4.5H45.9c0,0-2.8-2.5-2.7-6.1c0,0,0.7-4.1,2.6-7.8c1.9-3.7,6.2-12,6.2-12s1.3-0.5,3.6,0.1c2.6,0.7,5.2,2.3,5.2,2.3
			S58.3,391.1,57.8,395.9"/>
		<path clip-path="url(#SVGID_4_)" fill="#142E53" d="M143.3,405.8c-2.6-9.8-27.4-51.8-35.8-63.2c-17.2-7.5-35.6-13.8-35.6-13.8
			c-7.6,1.8-11.3,17.1-7,27.3c3,7,21.7,24.6,33.2,35l-31.9,0c0,0-3.8,5.6-0.4,10.9c0,0,53,12.1,57.6,12.7c4.6,0.7,15.1,0,15.1,0
			S145.5,414.1,143.3,405.8"/>
		<path clip-path="url(#SVGID_4_)" fill="#5279BC" d="M19.1,395.9c-0.2,1.9,1.5,3.6,1.2,4.1c-0.3,0.5-5.9,9.8-5.9,9.8
			s4.2,1.8,3.5,4.5H7.3c0,0-2.8-2.5-2.7-6.1c0,0,0.7-4.1,2.6-7.8c1.9-3.7,6.2-12,6.2-12s1.3-0.5,3.6,0.1c2.6,0.7,5.2,2.3,5.2,2.3
			S19.6,391.1,19.1,395.9"/>
		<path clip-path="url(#SVGID_4_)" fill="#E59292" d="M183.2,276.4l-17.1,30.1l-12.2-12.2l-10.1,15.1l2.9,1.4l-1.1,0.9
			c0,0,23.6,11.5,26.5,9c2.8-2.5,16-40.8,16-40.8L183.2,276.4z"/>
		<path clip-path="url(#SVGID_4_)" fill="#5279BC" d="M156.1,296.2c0,0-3.2,13.6-9.7,20.1l-16.5-6.3c0,0-7.7,12.9-15.2,22.8
			c-2.9,3.8-3.8,9.2-7.2,9.9c-0.2-0.1-0.4-0.1-0.6-0.2c-9.2-2.8-22.7,0.2-33.9-4c-12.3-4.6-9.9-7.2-9.9-7.2s7.5-13.5,11.7-27.8
			c1.9-6.3,3.2-12.2,4.1-16.7c1.6-8.1,8.1-14.4,16.2-15.5c0.1,0,0.2,0,0.3,0c9.4-1.2,33.8,1.7,38.6,3.7
			C138.7,277,156.1,296.2,156.1,296.2"/>
		<path clip-path="url(#SVGID_4_)" fill="#6791CB" d="M129.9,310c0,0-7.7,12.9-15.2,22.8c-2.9,3.8-3.8,9.2-7.2,9.9
			c1.5-0.5,3.9-8.3,4.8-10.1c0.9-1.7,2.3-3.5,5.3-9.6c3-6.1,7.1-15.1,7.1-15.1L129.9,310z"/>
		<path clip-path="url(#SVGID_4_)" fill="#010101" d="M98.1,391.1c0,0,0.3-0.1,0.7-0.1c0.5,0,1.1-0.1,1.9-0.2c1.6-0.1,3.7,0,5.8,0.3
			c1,0.2,2.1,0.3,3,0.6c1,0.2,1.8,0.5,2.6,0.8c0.7,0.3,1.3,0.5,1.8,0.7c0.4,0.2,0.7,0.3,0.7,0.3s-0.3,0-0.7-0.1
			c-0.4-0.1-1.1-0.2-1.9-0.3c-1.5-0.3-3.6-0.6-5.6-0.9c-1-0.2-2.1-0.3-3-0.4c-1-0.1-1.9-0.2-2.6-0.3
			C99.1,391.2,98.1,391.1,98.1,391.1"/>
		<path clip-path="url(#SVGID_4_)" fill="#E59292" d="M196,265.3c-0.3,0-2,1.4-2.9,2.1l1-1.9c0,0,1.3-1.2,1.8-1.9
			c0.5-0.7,0.2-1.4-0.1-1.4c-0.3,0-1.8,1.2-2.7,1.9l0.2-0.4c0,0,1.3-1.2,1.8-1.9c0.5-0.7,0.2-1.4-0.1-1.4c-0.4,0-3.3,2.5-3.3,2.5
			l-1.4,1.9l1.1-2.1c0,0,0.6-0.7,1-1.5c0.4-0.8,0.1-1-0.1-1.3c-0.2-0.3-2.2,1.2-2.7,1.8c-0.5,0.6-2.1,3-2.3,3.3l-1.7,3.5
			c-0.1-1-0.3-2.7-0.4-3.8c-0.2-1.6-1.6-1.9-1.6-1.2c0,0.8-0.8,4.5-0.7,6.6c0.2,2,0.5,3.4,0.6,4.5s-1.1,3.4-1.1,3.4s4.8,3,5.5,2.1
			c0.8-0.9,2.5-2.8,3.3-4.2c1.1-1.8,1.9-4.2,1.9-4.2l1.5-3.2c0,0,1.3-1.2,1.8-1.9C196.6,266.1,196.4,265.4,196,265.3"/>
		<path clip-path="url(#SVGID_4_)" fill="#FFFFFF" d="M365.1,139.2H263.5c-5.6,0-10.2-4.5-10.2-10.2c0-5.6,4.5-10.2,10.2-10.2h101.7
			c5.6,0,10.2,4.5,10.2,10.2C375.3,134.7,370.7,139.2,365.1,139.2"/>
		<path clip-path="url(#SVGID_4_)" fill="none" stroke="#5160AB" stroke-width="0.896" stroke-miterlimit="10" d="M365.1,139.2
			H263.5c-5.6,0-10.2-4.5-10.2-10.2c0-5.6,4.5-10.2,10.2-10.2h101.7c5.6,0,10.2,4.5,10.2,10.2C375.3,134.7,370.7,139.2,365.1,139.2z
			"/>
		
			<circle clip-path="url(#SVGID_4_)" fill="none" stroke="#5160AB" stroke-width="1.672" stroke-miterlimit="10" cx="358.3" cy="128.4" r="5.4"/>
		
			<line clip-path="url(#SVGID_4_)" fill="none" stroke="#5160AB" stroke-width="1.672" stroke-linecap="round" stroke-miterlimit="10" x1="362.1" y1="132.2" x2="365.1" y2="135.2"/>
		<path clip-path="url(#SVGID_4_)" fill="#B5BFE2" d="M211.1,415.3h-25.6c-4.5,0-8.1-3.6-8.1-8.1v-25.6c0-4.5,3.6-8.1,8.1-8.1h25.6
			c4.5,0,8.1,3.6,8.1,8.1v25.6C219.2,411.7,215.6,415.3,211.1,415.3"/>
		<path clip-path="url(#SVGID_4_)" fill="#5160AB" d="M203.5,415.3H178c-4.5,0-8.1-3.6-8.1-8.1v-25.6c0-4.5,3.6-8.1,8.1-8.1h25.6
			c4.5,0,8.1,3.6,8.1,8.1v25.6C211.6,411.7,208,415.3,203.5,415.3"/>
		<path clip-path="url(#SVGID_4_)" fill="#FFFFFF" d="M185.8,386.5l12,6.9c0.7,0.4,0.7,1.5,0,1.9l-12,6.9c-0.7,0.4-1.7-0.1-1.7-1
			v-13.8C184.1,386.6,185.1,386.1,185.8,386.5"/>
		<path clip-path="url(#SVGID_4_)" fill="#F1F4FA" d="M326.9,150.9h-21.5c-0.9,0-1.6-0.7-1.6-1.6c0-0.9,0.7-1.6,1.6-1.6h21.5
			c0.9,0,1.6,0.7,1.6,1.6C328.5,150.2,327.8,150.9,326.9,150.9"/>
		<path clip-path="url(#SVGID_4_)" fill="#F1F4FA" d="M348.4,150.9h-15.5c-0.9,0-1.6-0.7-1.6-1.6c0-0.9,0.7-1.6,1.6-1.6h15.5
			c0.9,0,1.6,0.7,1.6,1.6C350,150.2,349.3,150.9,348.4,150.9"/>
		<path clip-path="url(#SVGID_4_)" fill="#F1F4FA" d="M314.5,158h-9.1c-0.9,0-1.6-0.7-1.6-1.6c0-0.9,0.7-1.6,1.6-1.6h9.1
			c0.9,0,1.6,0.7,1.6,1.6C316.2,157.3,315.4,158,314.5,158"/>
		<path clip-path="url(#SVGID_4_)" fill="#F1F4FA" d="M348.4,158H320c-0.9,0-1.6-0.7-1.6-1.6c0-0.9,0.7-1.6,1.6-1.6h28.4
			c0.9,0,1.6,0.7,1.6,1.6C350,157.3,349.3,158,348.4,158"/>
		<path clip-path="url(#SVGID_4_)" fill="#F1F4FA" d="M333.7,165.1h-28.3c-0.9,0-1.6-0.7-1.6-1.6s0.7-1.6,1.6-1.6h28.3
			c0.9,0,1.6,0.7,1.6,1.6S334.6,165.1,333.7,165.1"/>
		<path clip-path="url(#SVGID_4_)" fill="#F1F4FA" d="M348.4,165.1h-9.1c-0.9,0-1.6-0.7-1.6-1.6s0.7-1.6,1.6-1.6h9.1
			c0.9,0,1.6,0.7,1.6,1.6S349.3,165.1,348.4,165.1"/>
		
			<circle clip-path="url(#SVGID_4_)" fill="none" stroke="#DFE2F2" stroke-width="0.79" stroke-miterlimit="10" cx="410.9" cy="68.1" r="34.2"/>
		<path clip-path="url(#SVGID_4_)" fill="#B5BFE2" d="M440.6,68.1c0,16.4-13.3,29.7-29.7,29.7c-16.4,0-29.7-13.3-29.7-29.7
			c0-16.4,13.3-29.7,29.7-29.7C427.3,38.4,440.6,51.7,440.6,68.1"/>
		<path clip-path="url(#SVGID_4_)" fill="#FFFFFF" d="M413.6,68.1c0,1.5-1.2,2.7-2.7,2.7c-1.5,0-2.7-1.2-2.7-2.7
			c0-1.5,1.2-2.7,2.7-2.7C412.4,65.4,413.6,66.6,413.6,68.1"/>
		<path clip-path="url(#SVGID_4_)" fill="#FFFFFF" d="M410.6,67.6L410.6,67.6c-0.4,0.2-0.9,0.1-1.1-0.3l-8.7-15.8
			c-0.2-0.4-0.1-0.9,0.3-1.1c0.4-0.2,0.9-0.1,1.1,0.3l8.7,15.8C411.1,66.8,411,67.3,410.6,67.6"/>
		<path clip-path="url(#SVGID_4_)" fill="#FFFFFF" d="M411.3,68.5L411.3,68.5c0.3-0.3,0.9-0.3,1.2,0l7.6,7.6c0.3,0.3,0.3,0.9,0,1.2
			c-0.3,0.3-0.9,0.3-1.2,0l-7.6-7.6C411,69.4,411,68.8,411.3,68.5"/>
		
			<line clip-path="url(#SVGID_4_)" fill="none" stroke="#FFFFFF" stroke-width="2" stroke-linecap="round" stroke-miterlimit="10" x1="411.1" y1="44.3" x2="411.1" y2="40.9"/>
		
			<line clip-path="url(#SVGID_4_)" fill="none" stroke="#FFFFFF" stroke-width="2" stroke-linecap="round" stroke-miterlimit="10" x1="434.6" y1="68.3" x2="438.1" y2="68.3"/>
		
			<line clip-path="url(#SVGID_4_)" fill="none" stroke="#FFFFFF" stroke-width="2" stroke-linecap="round" stroke-miterlimit="10" x1="410.7" y1="91.9" x2="410.7" y2="95.3"/>
		
			<line clip-path="url(#SVGID_4_)" fill="none" stroke="#FFFFFF" stroke-width="2" stroke-linecap="round" stroke-miterlimit="10" x1="387.1" y1="67.9" x2="383.7" y2="67.9"/>
		<g opacity="0.5" clip-path="url(#SVGID_4_)">
			<g>
				<defs>
					<rect id="SVGID_7_" x="386.7" y="43.9" width="48.3" height="48.3"/>
				</defs>
				<clipPath id="SVGID_8_">
					<use xlink:href="#SVGID_7_"  overflow="visible"/>
				</clipPath>
				
					<line clip-path="url(#SVGID_8_)" fill="none" stroke="#DFE2F2" stroke-linecap="round" stroke-miterlimit="10" x1="399.1" y1="47.4" x2="397.4" y2="44.4"/>
				
					<line clip-path="url(#SVGID_8_)" fill="none" stroke="#DFE2F2" stroke-linecap="round" stroke-miterlimit="10" x1="431.6" y1="56.4" x2="434.5" y2="54.7"/>
				
					<line clip-path="url(#SVGID_8_)" fill="none" stroke="#DFE2F2" stroke-linecap="round" stroke-miterlimit="10" x1="422.6" y1="88.8" x2="424.3" y2="91.7"/>
				
					<line clip-path="url(#SVGID_8_)" fill="none" stroke="#DFE2F2" stroke-linecap="round" stroke-miterlimit="10" x1="390.2" y1="79.8" x2="387.2" y2="81.5"/>
			</g>
		</g>
		<g opacity="0.5" clip-path="url(#SVGID_4_)">
			<g>
				<defs>
					<rect id="SVGID_9_" x="386.9" y="44.1" width="48" height="48"/>
				</defs>
				<clipPath id="SVGID_10_">
					<use xlink:href="#SVGID_9_"  overflow="visible"/>
				</clipPath>
				
					<line clip-path="url(#SVGID_10_)" fill="none" stroke="#DFE2F2" stroke-linecap="round" stroke-miterlimit="10" x1="390.4" y1="56" x2="387.4" y2="54.3"/>
				
					<line clip-path="url(#SVGID_10_)" fill="none" stroke="#DFE2F2" stroke-linecap="round" stroke-miterlimit="10" x1="422.9" y1="47.6" x2="424.6" y2="44.6"/>
				
					<line clip-path="url(#SVGID_10_)" fill="none" stroke="#DFE2F2" stroke-linecap="round" stroke-miterlimit="10" x1="431.4" y1="80.1" x2="434.3" y2="81.8"/>
				
					<line clip-path="url(#SVGID_10_)" fill="none" stroke="#DFE2F2" stroke-linecap="round" stroke-miterlimit="10" x1="398.8" y1="88.6" x2="397.1" y2="91.5"/>
			</g>
		</g>
		<path clip-path="url(#SVGID_4_)" fill="#F1F4FA" d="M49.3,200H36.2c-0.8,0-1.4-0.6-1.4-1.4c0-0.8,0.6-1.4,1.4-1.4h13.1
			c0.8,0,1.4,0.6,1.4,1.4C50.7,199.4,50.1,200,49.3,200"/>
		<path clip-path="url(#SVGID_4_)" fill="#F1F4FA" d="M62.5,206.4H36.2c-0.8,0-1.4-0.6-1.4-1.4s0.6-1.4,1.4-1.4h26.4
			c0.8,0,1.4,0.6,1.4,1.4S63.3,206.4,62.5,206.4"/>
		<path clip-path="url(#SVGID_4_)" fill="#F1F4FA" d="M39.3,212.8h-3.1c-0.8,0-1.4-0.6-1.4-1.4c0-0.8,0.6-1.4,1.4-1.4h3.1
			c0.8,0,1.4,0.6,1.4,1.4C40.7,212.1,40.1,212.8,39.3,212.8"/>
		<path clip-path="url(#SVGID_4_)" fill="#F1F4FA" d="M62.5,212.8H44.2c-0.8,0-1.4-0.6-1.4-1.4c0-0.8,0.6-1.4,1.4-1.4h18.4
			c0.8,0,1.4,0.6,1.4,1.4C64,212.1,63.3,212.8,62.5,212.8"/>
		<path clip-path="url(#SVGID_4_)" fill="#F1F4FA" d="M62.5,200h-8c-0.8,0-1.4-0.6-1.4-1.4c0-0.8,0.6-1.4,1.4-1.4h8
			c0.8,0,1.4,0.6,1.4,1.4C64,199.4,63.3,200,62.5,200"/>
		
			<line clip-path="url(#SVGID_4_)" fill="none" stroke="#FFFFFF" stroke-width="1.114" stroke-linecap="round" stroke-miterlimit="10" x1="12" y1="414.8" x2="410.4" y2="414.8"/>
	</g>
</g>
</svg>
